
<svg viewBox="0 0 200 200" xmlns="http://www.w3.org/2000/svg">
  <path fill="#04D361" d="M41.2,-57.4C55.2,-63.3,69.7,-55.9,75.6,-44.1C81.5,-32.4,78.9,-16.2,71.5,-4.2C64.2,7.7,52.1,15.4,39.7,16C27.3,16.5,14.7,10,8,17.8C1.3,25.7,0.7,48,-4.7,56.1C-10,64.2,-20,58.1,-33.8,54.4C-47.6,50.6,-65.2,49.2,-76.2,40.5C-87.3,31.9,-91.8,15.9,-90.4,0.8C-89,-14.3,-81.8,-28.7,-71.3,-38.2C-60.7,-47.8,-46.9,-52.5,-34.4,-47.5C-22,-42.6,-11,-28,1.3,-30.2C13.6,-32.5,27.2,-51.6,41.2,-57.4Z" transform="translate(100 100)"  opacity="50.1%"/>
</svg>